<?xml version="1.0" standalone="no"?>
<!DOCTYPE svg PUBLIC "-//W3C//DTD SVG 20010904//EN"
 "http://www.w3.org/TR/2001/REC-SVG-20010904/DTD/svg10.dtd">
<svg version="1.0" xmlns="http://www.w3.org/2000/svg"
 width="267.000000pt" height="272.000000pt" viewBox="0 0 267.000000 272.000000"
 preserveAspectRatio="xMidYMid meet"  fill="#61dafb">

<g transform="translate(0.000000,272.000000) scale(0.100000,-0.100000)"
fill="#000000" stroke="none">
<path d="M1492 2268 c2 -13 10 -23 18 -23 17 0 21 26 5 37 -18 14 -26 8 -23
-14z"/>
<path d="M1437 2138 c-4 -12 -2 -27 2 -31 12 -12 43 -5 49 12 3 9 0 12 -10 8
-10 -3 -15 0 -14 10 2 25 -21 26 -27 1z"/>
<path d="M1486 2013 c-11 -12 -6 -40 9 -53 28 -23 41 4 18 34 -11 14 -23 22
-27 19z"/>
<path d="M1838 1613 c7 -3 16 -2 19 1 4 3 -2 6 -13 5 -11 0 -14 -3 -6 -6z"/>
<path d="M280 1340 c0 -5 5 -10 10 -10 6 0 10 5 10 10 0 6 -4 10 -10 10 -5 0
-10 -4 -10 -10z"/>
<path d="M296 1295 c4 -8 11 -15 16 -15 6 0 5 6 -2 15 -7 8 -14 15 -16 15 -2
0 -1 -7 2 -15z"/>
<path d="M300 1265 c0 -5 5 -17 10 -25 7 -11 10 -11 10 -2 0 7 5 10 10 7 6 -4
10 -14 9 -23 -3 -36 2 -50 20 -55 36 -9 33 31 -5 71 -20 21 -34 30 -34 22 0
-13 -2 -13 -10 0 -5 8 -10 11 -10 5z m65 -55 c3 -5 1 -10 -4 -10 -6 0 -11 5
-11 10 0 6 2 10 4 10 3 0 8 -4 11 -10z"/>
<path d="M350 1260 c0 -5 5 -10 11 -10 5 0 7 5 4 10 -3 6 -8 10 -11 10 -2 0
-4 -4 -4 -10z"/>
<path d="M385 1160 c-7 -21 -25 -28 -25 -10 0 23 -19 8 -39 -30 -32 -62 -30
-183 5 -253 25 -49 94 -127 113 -127 5 0 11 -37 13 -82 4 -94 37 -174 92 -226
33 -32 120 -82 142 -82 8 0 20 -12 28 -28 24 -46 98 -112 155 -138 110 -51
209 -50 312 1 40 21 49 29 38 37 -11 8 -10 8 5 4 12 -4 27 3 45 21 14 14 20
23 13 19 -8 -5 -11 0 -8 16 2 16 10 23 24 22 12 0 19 3 16 8 -8 13 -40 9 -53
-6 -9 -11 -9 -15 1 -19 8 -3 6 -6 -5 -6 -11 -1 -32 -10 -47 -21 -47 -34 -111
-52 -185 -52 -109 -1 -183 39 -256 138 -27 37 -49 56 -76 64 -59 19 -110 58
-144 112 -31 48 -32 55 -32 144 l1 94 -34 16 c-46 22 -102 88 -116 138 -18 65
-16 156 6 199 10 21 22 34 25 29 4 -7 13 -5 24 3 12 8 14 15 8 20 -6 3 -11 1
-11 -5 0 -6 -5 -8 -10 -5 -6 4 -8 11 -5 16 4 5 2 9 -4 9 -5 0 -13 -9 -16 -20z
m-25 -50 c0 -5 -8 -10 -17 -10 -15 0 -16 2 -3 10 19 12 20 12 20 0z"/>
<path d="M426 1116 c8 -20 42 -27 48 -9 9 24 7 26 -11 12 -13 -11 -17 -11 -20
-1 -3 6 -9 12 -14 12 -4 0 -6 -6 -3 -14z"/>
<path d="M490 1090 c0 -5 5 -10 10 -10 6 0 10 5 10 10 0 6 -4 10 -10 10 -5 0
-10 -4 -10 -10z"/>
<path d="M556 1087 c3 -10 9 -15 12 -12 3 3 0 11 -7 18 -10 9 -11 8 -5 -6z"/>
<path d="M1490 960 c0 -13 7 -20 18 -20 28 0 34 11 14 26 -24 19 -32 17 -32
-6z"/>
<path d="M1435 831 c-8 -26 1 -41 25 -41 26 0 31 12 14 35 -8 10 -14 15 -14 9
0 -5 -4 -3 -9 5 -7 11 -10 9 -16 -8z"/>
<path d="M1491 701 c-17 -11 -11 -41 12 -55 14 -8 20 -8 27 4 7 11 4 17 -10
22 -11 4 -20 13 -20 20 0 9 3 9 10 -2 6 -9 10 -10 10 -3 0 17 -14 23 -29 14z"/>
</g>
</svg>
