 <svg version="1.0" xmlns="http://www.w3.org/2000/svg"  width="300.000000pt" height="240.000000pt" viewBox="0 0 300.000000 240.000000"  preserveAspectRatio="xMidYMid meet">  <g transform="translate(0.000000,240.000000) scale(0.100000,-0.100000)" fill="#61dafb" stroke="none"> <path d="M1272 2218 c9 -7 4 -8 -14 -4 -16 4 -28 3 -28 -2 0 -5 -6 -9 -12 -10 -34 -2 -164 -57 -173 -72 -3 -6 -14 -10 -23 -10 -15 0 -32 -12 -89 -60 -7 -5 -17 -10 -23 -10 -5 0 -10 -4 -10 -10 0 -5 -6 -10 -13 -10 -7 0 -22 -7 -33 -16 -10 -8 -12 -12 -4 -9 8 4 3 -3 -13 -16 -15 -13 -29 -33 -32 -44 -2 -11 -11 -40 -20 -63 -10 -27 -13 -57 -9 -78 5 -27 3 -34 -9 -34 -9 0 -23 -7 -32 -16 -9 -9 -18 -14 -21 -11 -8 8 -100 -89 -118 -124 -28 -55 -45 -144 -36 -184 5 -23 4 -40 -3 -48 -49 -53 -80 -134 -81 -207 0 -75 6 -130 15 -124 3 2 11 -13 18 -34 10 -30 10 -45 -3 -80 -33 -92 -11 -238 45 -298 10 -11 17 -23 14 -26 -3 -3 2 -11 12 -19 11 -9 14 -10 9 -1 -12 20 5 13 24 -10 15 -18 19 -38 18 -87 0 -40 4 -66 12 -71 7 -4 9 -13 6 -19 -4 -6 -3 -11 2 -11 5 0 15 -14 22 -31 12 -27 80 -108 80 -93 0 3 12 -4 26 -15 15 -12 33 -21 40 -21 8 0 14 -4 14 -9 0 -5 11 -12 25 -15 14 -4 24 -10 22 -14 -1 -4 5 -15 13 -25 38 -45 68 -68 131 -100 64 -32 74 -34 151 -32 103 4 128 7 128 17 0 4 7 8 16 8 18 0 86 51 126 95 l27 30 53 -53 c30 -28 58 -52 63 -52 4 0 16 -6 24 -13 45 -38 234 -48 291 -15 71 40 101 62 111 79 5 11 16 19 23 19 13 0 31 30 24 39 -2 2 20 14 47 28 28 14 58 32 68 41 9 8 17 11 17 7 0 -11 36 31 69 80 33 49 51 104 55 167 2 39 9 54 44 92 23 25 42 42 42 38 1 -4 12 25 26 63 22 59 25 82 21 148 -3 43 -9 83 -14 90 -13 16 -14 57 -2 57 5 0 8 3 7 8 -1 4 6 32 15 63 24 81 10 186 -33 249 -9 14 -15 32 -13 40 4 13 3 13 -6 0 -14 -20 -14 -19 -16 81 -1 65 -7 97 -23 129 -12 24 -18 48 -15 53 3 6 1 7 -5 3 -7 -4 -12 -2 -12 3 0 14 -77 91 -90 91 -5 0 -14 8 -19 18 -6 9 -11 14 -11 9 0 -4 -11 0 -24 9 -19 12 -25 24 -24 52 0 49 -18 114 -41 143 -10 13 -17 30 -15 37 1 7 0 8 -3 2 -3 -6 -18 2 -34 20 -16 16 -34 30 -40 30 -7 0 -20 10 -30 22 -11 11 -19 18 -19 14 0 -4 -15 4 -32 18 -31 23 -139 76 -162 80 -6 1 -18 6 -26 11 -14 8 -89 23 -155 29 -32 3 -90 -17 -116 -40 -16 -14 -49 -10 -49 6 0 10 -83 30 -139 34 -29 2 -39 0 -29 -6z m145 -50 c18 -11 37 -27 42 -36 8 -13 13 -12 39 15 46 46 104 58 179 39 83 -22 190 -66 254 -105 165 -102 204 -155 197 -265 l-4 -63 49 -17 c53 -19 124 -83 152 -135 25 -49 38 -135 26 -178 -9 -33 -8 -40 13 -63 76 -81 95 -216 45 -319 l-27 -53 19 -44 c47 -105 16 -239 -72 -318 -49 -44 -49 -44 -49 -108 -1 -110 -60 -201 -162 -247 -39 -18 -66 -39 -87 -68 -114 -157 -355 -177 -489 -40 -22 23 -47 55 -56 71 l-14 28 -15 -28 c-24 -45 -97 -111 -150 -134 -140 -62 -318 -15 -397 105 -16 23 -43 45 -75 59 -113 51 -165 126 -173 245 -5 75 -6 77 -48 114 -90 80 -122 215 -75 322 l20 46 -24 44 c-50 95 -40 214 26 305 30 41 32 50 33 130 1 75 5 91 31 139 33 59 98 115 154 132 l36 11 0 77 c0 67 4 83 27 118 34 52 186 153 292 194 156 61 217 67 283 27z"/> <path d="M1230 2111 c-76 -25 -160 -62 -160 -71 0 -4 14 -10 31 -14 39 -7 115 -81 125 -120 5 -20 2 -32 -11 -44 -15 -16 -18 -15 -33 7 -9 13 -33 41 -53 64 -32 36 -41 41 -90 44 -39 3 -64 -1 -89 -14 -40 -21 -80 -84 -80 -128 0 -61 8 -71 65 -84 125 -28 219 -137 227 -264 2 -35 -11 -56 -33 -57 -14 0 -27 27 -32 67 -7 59 -50 128 -99 161 -37 24 -51 27 -124 27 -75 0 -86 -3 -126 -30 -78 -55 -121 -183 -87 -259 11 -23 8 -30 -26 -67 -48 -54 -65 -96 -65 -164 0 -104 73 -194 172 -214 29 -6 61 -9 72 -8 22 2 41 -24 33 -47 -13 -34 -168 -10 -214 34 l-22 20 -13 -22 c-7 -13 -13 -55 -13 -94 0 -60 4 -76 28 -112 15 -23 46 -56 70 -73 l42 -30 0 -84 c0 -76 2 -87 30 -126 35 -50 82 -85 134 -99 26 -7 41 -19 56 -46 45 -85 158 -142 256 -131 133 16 239 135 239 266 0 54 -28 131 -62 171 -25 30 -83 68 -117 77 -44 11 -62 37 -40 58 14 15 21 14 71 -5 31 -11 76 -39 101 -60 25 -22 47 -40 49 -40 1 0 1 327 -2 727 -4 559 -8 733 -18 750 -31 55 -93 66 -192 34z m138 -20 c39 -21 41 -62 41 -753 0 -368 -4 -668 -8 -668 -5 0 -14 6 -20 14 -20 24 -99 56 -136 56 -32 0 -38 -4 -51 -36 -14 -33 -14 -38 2 -55 9 -10 24 -19 33 -19 14 0 14 -2 1 -11 -13 -9 -12 -10 2 -5 37 11 111 -40 151 -104 29 -47 36 -213 8 -195 -5 3 -7 -3 -5 -12 7 -24 -83 -117 -114 -118 -4 -1 -18 -7 -31 -14 -17 -9 -21 -10 -16 -1 5 9 3 9 -11 2 -54 -28 -184 17 -221 76 -10 15 -22 30 -27 33 -5 4 -5 12 -1 19 5 9 4 11 -3 6 -7 -4 -12 -1 -12 9 0 9 -4 14 -8 11 -5 -3 -33 7 -63 21 -30 15 -58 25 -62 24 -5 -1 -6 3 -2 9 3 5 0 10 -8 10 -7 0 -24 22 -37 50 -19 42 -22 59 -17 114 7 71 4 75 -82 146 -17 14 -37 42 -46 63 -14 36 -21 118 -10 129 3 3 31 -5 63 -18 78 -32 151 -32 181 -1 17 19 20 29 12 48 -16 44 -56 60 -144 60 -9 0 -15 4 -12 10 4 5 -2 9 -12 9 -42 1 -94 78 -107 161 -6 37 9 99 25 99 5 0 9 5 9 11 0 6 15 29 34 49 32 36 34 40 25 80 -15 66 -9 121 17 156 13 17 21 34 18 37 -12 12 80 61 126 67 38 5 59 1 99 -16 28 -13 51 -28 51 -34 0 -6 5 -8 10 -5 6 3 10 -1 10 -10 0 -9 4 -14 10 -10 9 5 17 -17 40 -112 6 -24 15 -43 21 -43 6 0 8 -4 5 -9 -11 -17 45 -19 65 -2 28 23 40 90 22 131 -7 18 -13 41 -13 52 0 10 -4 16 -10 13 -5 -3 -10 1 -10 9 0 18 -94 116 -110 116 -6 0 -8 5 -4 11 4 8 0 9 -15 4 -22 -7 -30 10 -8 18 6 2 -4 4 -23 5 -79 0 -93 12 -83 72 8 49 27 72 74 91 68 26 98 11 180 -92 26 -32 28 -33 54 -19 53 28 56 66 10 134 -14 21 -22 42 -19 48 4 7 2 8 -5 4 -6 -4 -24 0 -38 10 l-27 17 70 27 c75 29 134 36 162 21z"/> <path d="M830 1510 c-41 -41 -12 -187 49 -252 17 -18 31 -36 31 -40 0 -5 7 -8 16 -8 8 0 13 -4 10 -9 -3 -5 16 -17 44 -27 27 -10 47 -21 44 -25 -2 -4 5 -5 17 -2 19 5 20 4 8 -16 -8 -11 -19 -21 -26 -21 -6 0 -13 -5 -15 -11 -2 -7 -18 -12 -35 -13 -37 -1 -83 -38 -83 -66 0 -10 10 -29 23 -40 17 -17 31 -20 62 -16 45 5 115 37 134 60 7 9 17 13 22 10 5 -3 8 -2 7 3 -5 15 40 65 45 51 3 -7 6 1 6 17 1 27 8 33 66 59 36 16 65 33 65 38 0 4 7 8 16 8 9 0 12 5 8 12 -5 7 -2 9 8 6 8 -4 15 -1 16 5 1 7 5 27 8 45 5 24 2 38 -11 52 -24 27 -47 25 -84 -6 -17 -14 -35 -23 -41 -19 -6 3 -7 0 -4 -10 4 -9 3 -15 -2 -14 -5 1 -16 -1 -24 -4 -35 -15 -99 -24 -111 -16 -8 5 -24 9 -35 9 -27 0 -76 38 -68 52 4 6 2 8 -3 5 -6 -4 -16 0 -23 8 -10 12 -10 18 0 30 11 13 10 14 -2 10 -19 -7 -29 15 -34 75 -7 74 -59 105 -104 60z m70 -54 c0 -50 37 -131 76 -168 82 -77 214 -77 303 -1 45 38 67 42 76 12 5 -14 0 -28 -16 -45 -23 -25 -132 -84 -155 -84 -6 0 -14 -10 -18 -23 -3 -13 -19 -42 -35 -64 -56 -77 -201 -123 -209 -66 -3 20 28 49 40 37 13 -12 91 32 118 66 35 44 36 50 12 50 -74 0 -178 72 -218 152 -34 67 -44 156 -20 174 29 21 46 6 46 -40z"/> <path d="M1150 923 c-33 -11 -45 -14 -50 -15 -3 0 -17 -9 -32 -19 -14 -10 -31 -19 -37 -19 -6 0 -15 -9 -21 -20 -6 -11 -17 -20 -26 -20 -8 0 -18 -8 -21 -17 -4 -10 -14 -26 -23 -36 -17 -18 -40 -81 -40 -111 0 -9 -17 -24 -37 -33 -42 -20 -53 -50 -32 -89 10 -19 21 -24 51 -24 51 0 107 -24 140 -61 37 -40 46 -58 59 -119 6 -29 20 -61 30 -71 23 -23 65 -25 73 -3 3 8 10 13 15 9 5 -3 13 0 17 6 4 8 3 9 -4 5 -13 -8 -14 0 -3 29 5 12 2 33 -6 54 -8 18 -12 39 -9 47 3 7 -2 20 -10 29 -8 8 -12 21 -8 27 4 7 4 10 -1 6 -4 -4 -19 10 -32 30 -14 20 -37 46 -51 57 -14 11 -34 28 -44 38 -10 9 -21 18 -25 20 -5 1 -6 7 -4 12 1 6 4 20 5 31 7 57 98 131 174 140 43 6 84 51 71 76 -5 10 -6 18 -2 18 4 1 -3 7 -17 15 -25 14 -71 18 -100 8z m94 -40 c9 -22 -12 -43 -43 -43 -77 0 -194 -95 -206 -167 -4 -21 -9 -46 -11 -55 -4 -12 6 -23 33 -37 83 -43 148 -140 160 -239 4 -37 2 -51 -11 -61 -25 -21 -42 1 -55 68 -23 116 -114 201 -217 201 -29 0 -44 5 -48 16 -9 23 12 44 44 44 24 0 28 5 34 41 14 86 77 173 156 214 38 20 131 44 147 38 6 -3 14 -12 17 -20z"/> <path d="M1560 2117 c-14 -7 -33 -28 -43 -47 -16 -33 -17 -90 -15 -890 3 -855 3 -855 25 -895 91 -169 289 -204 425 -74 33 32 48 52 40 56 -7 2 -17 13 -22 24 -25 46 43 82 73 39 18 -26 49 -16 106 35 55 50 76 108 68 190 -6 63 -6 65 22 79 40 21 97 88 111 131 19 56 8 138 -23 182 l-26 37 19 31 c38 58 51 98 52 154 1 65 -17 108 -68 162 -32 33 -34 37 -23 68 6 17 9 58 7 91 -7 101 -79 180 -182 199 -66 12 -72 21 -52 71 20 50 20 92 2 128 -31 59 -135 135 -261 190 -122 53 -186 63 -235 39z m108 -27 c2 0 0 -9 -3 -20 -4 -13 0 -31 10 -47 9 -14 12 -22 6 -19 -33 21 -128 25 -116 6 3 -5 2 -10 -3 -10 -16 0 -20 -49 -6 -61 19 -16 18 -33 -2 -25 -8 3 -12 2 -9 -4 3 -6 1 -10 -6 -10 -8 0 -10 22 -6 76 4 68 8 79 33 101 22 19 36 23 64 19 19 -3 36 -5 38 -6z m80 -38 c-5 -24 -52 -23 -56 2 -2 10 2 22 9 27 18 11 51 -9 47 -29z m61 -17 c16 -8 31 -11 34 -8 4 3 9 -2 13 -11 3 -9 14 -16 23 -16 21 0 133 -89 132 -104 -3 -24 0 -30 9 -16 8 13 10 12 11 -5 5 -51 3 -93 -3 -89 -3 2 -8 -18 -10 -45 -1 -27 -1 -48 1 -46 2 3 15 -5 29 -15 13 -11 34 -20 45 -20 24 0 107 -38 107 -49 0 -4 8 -16 19 -27 32 -35 38 -57 35 -124 -2 -36 -4 -75 -5 -87 -1 -13 13 -39 30 -58 50 -58 60 -85 57 -159 -3 -52 -9 -75 -30 -104 -31 -46 -33 -74 -5 -113 11 -16 18 -29 14 -29 -3 0 -3 -6 2 -12 26 -42 12 -133 -27 -175 -16 -17 -26 -34 -22 -38 4 -4 0 -6 -8 -3 -8 3 -29 -9 -48 -28 -31 -32 -32 -36 -26 -87 4 -35 2 -62 -6 -77 -8 -14 -8 -20 -1 -16 16 10 14 2 -10 -38 -11 -19 -29 -38 -40 -41 -11 -4 -17 -11 -14 -16 4 -5 -6 -14 -21 -19 -20 -8 -31 -7 -43 3 -27 23 -45 32 -36 17 5 -9 2 -10 -11 -6 -11 3 -24 2 -30 -2 -19 -12 -45 -72 -38 -84 11 -17 14 -59 4 -53 -4 3 -11 -2 -14 -11 -6 -15 -69 -47 -93 -47 -7 0 -13 -3 -13 -7 0 -7 -89 -4 -125 4 -11 2 -23 5 -27 5 -14 2 -87 69 -81 75 4 3 2 6 -4 6 -23 0 -45 73 -49 160 -4 87 5 118 25 83 6 -12 22 -18 50 -18 35 0 40 -2 35 -20 -5 -21 41 -82 61 -80 66 6 108 58 80 98 -22 31 -19 40 14 35 17 -3 38 2 50 11 19 15 12 16 -91 13 -88 -3 -114 -7 -123 -19 -15 -21 -61 -10 -67 15 -12 44 43 72 72 37 10 -12 37 -15 123 -15 141 0 134 20 -9 27 -72 4 -105 10 -121 23 -21 16 -21 30 -1 30 5 0 6 -5 2 -12 -4 -7 -3 -8 5 -4 6 4 53 10 104 12 142 8 131 24 -16 24 -79 0 -134 -4 -146 -12 -28 -17 -53 -3 -49 29 2 21 9 29 27 31 13 2 28 -2 32 -10 5 -10 36 -12 136 -9 145 4 135 18 -15 20 -82 1 -93 3 -90 18 4 23 37 31 129 32 45 1 82 6 93 14 30 22 -184 24 -217 2 -23 -15 -26 -15 -41 1 -30 30 7 69 44 46 24 -14 188 -16 210 -2 12 8 10 10 -10 12 -14 1 -32 2 -40 4 -8 1 -23 2 -32 3 -17 1 -16 3 2 21 16 16 18 24 9 49 -14 40 -44 49 -78 24 -31 -24 -38 -55 -16 -77 15 -15 14 -16 -9 -16 -14 0 -26 5 -26 10 0 6 -11 8 -24 6 -32 -6 -77 -36 -70 -47 3 -5 1 -9 -3 -9 -6 0 -10 860 -4 889 1 2 10 -6 20 -18 15 -17 28 -22 52 -19 20 2 34 -2 36 -9 3 -7 -1 -13 -7 -13 -15 0 26 -57 52 -71 26 -14 71 4 86 34 19 38 25 70 13 63 -6 -4 -11 0 -11 8 0 11 13 18 40 22 73 12 41 19 -67 16 -76 -3 -113 -8 -124 -18 -34 -30 -79 17 -53 54 17 25 52 29 60 7 5 -12 27 -15 111 -15 107 0 138 15 39 19 -30 1 -67 6 -83 10 -15 4 -33 6 -39 4 -6 -2 -18 5 -27 15 -16 17 -14 18 36 19 85 2 176 14 182 24 4 5 -46 9 -121 9 -106 0 -131 -3 -146 -17 -24 -22 -52 -7 -56 30 -4 32 31 47 57 23 14 -13 42 -16 147 -16 153 1 148 15 -8 23 -96 6 -148 17 -148 33 0 3 9 2 20 -1 12 -4 28 -1 36 5 13 12 37 14 167 18 26 1 47 7 47 12 0 15 -206 13 -229 -2 -15 -9 -23 -9 -35 1 -9 8 -16 19 -16 26 0 7 7 18 16 26 12 10 20 10 35 1 21 -14 233 -17 225 -4 -3 5 -24 9 -47 10 -51 2 -54 4 -37 31 15 25 12 25 47 6z m-259 -276 c0 -5 -4 -9 -10 -9 -5 0 -10 7 -10 16 0 8 5 12 10 9 6 -3 10 -10 10 -16z m198 -101 c17 -17 15 -53 -3 -68 -20 -17 -62 -5 -70 21 -13 40 44 76 73 47z m-2 -753 c7 -18 -13 -45 -33 -45 -17 0 -27 24 -19 45 7 20 45 19 52 0z m-178 -145 c11 -18 10 -20 -13 -20 -20 0 -25 5 -25 25 0 28 19 26 38 -5z m-11 -170 c-6 -10 -15 -16 -20 -13 -5 3 -3 9 4 14 10 6 11 9 2 9 -7 0 -13 4 -13 9 0 5 9 7 19 4 17 -4 18 -8 8 -23z m201 -127 c4 -38 -25 -60 -57 -44 -47 25 -30 84 22 79 28 -3 32 -7 35 -35z"/> <path d="M1806 1613 c3 -13 2 -23 -3 -23 -4 0 -14 -9 -21 -21 -10 -15 -10 -19 -1 -14 9 6 10 1 5 -19 -4 -18 -3 -25 4 -21 5 3 10 2 10 -4 0 -16 55 -41 81 -36 13 3 27 12 32 20 4 8 14 21 21 27 17 16 9 52 -20 79 -19 17 -31 21 -63 16 -25 -3 -42 -1 -45 7 -3 6 -3 1 0 -11z m85 -23 c22 -12 26 -59 7 -78 -20 -20 -56 -14 -74 13 -15 23 -15 27 0 50 18 27 36 31 67 15z"/> <path d="M1965 1530 c-28 -30 -40 -66 -23 -76 4 -3 6 -10 3 -15 -4 -5 -1 -9 5 -9 6 0 9 -4 5 -10 -3 -5 -12 -7 -19 -4 -8 3 -31 -2 -51 -10 -37 -16 -37 -17 -21 -35 10 -11 25 -19 34 -19 61 2 171 -16 197 -33 17 -10 26 -19 20 -19 -153 -6 -255 -17 -255 -28 0 -4 60 -6 132 -4 106 3 136 6 151 20 14 12 22 14 35 6 42 -27 13 -88 -31 -66 -12 7 -82 13 -161 15 -115 2 -134 0 -110 -9 16 -7 74 -14 129 -15 108 -3 125 -6 125 -21 0 -5 -5 -6 -10 -3 -6 4 -17 2 -24 -4 -7 -6 -44 -13 -82 -16 -98 -8 -135 -15 -129 -25 7 -12 190 -3 215 10 27 14 50 2 50 -26 0 -29 -25 -42 -51 -26 -11 7 -61 12 -123 12 -74 0 -106 4 -109 13 -3 7 -6 6 -6 -5 -1 -19 17 -26 72 -30 30 -2 36 -5 31 -18 -17 -39 -15 -58 5 -72 11 -8 18 -18 14 -22 -4 -4 1 -4 12 -1 66 22 81 44 57 82 -13 21 -12 22 10 17 45 -9 87 -7 102 5 17 14 41 75 26 66 -6 -4 -10 1 -10 10 0 9 -4 14 -9 11 -5 -3 -13 0 -19 7 -8 9 -4 12 16 14 29 1 62 35 62 63 0 10 -14 30 -32 45 -31 27 -32 28 -16 55 15 27 15 29 -13 59 -31 35 -62 39 -93 14 -20 -18 -21 -18 -5 2 10 12 13 28 9 40 -4 11 -10 30 -15 43 -7 20 -27 28 -64 23 -7 -2 -10 2 -6 8 11 20 -1 12 -30 -19z m73 -22 c16 -16 15 -53 -2 -68 -21 -17 -58 -8 -67 16 -15 43 38 83 69 52z m118 -114 c11 -44 -38 -73 -66 -39 -10 12 -36 15 -116 15 -56 0 -105 4 -108 9 -3 4 45 11 105 15 69 4 119 12 131 20 26 18 47 10 54 -20z m-119 -340 c8 -21 -19 -46 -40 -38 -17 6 -23 35 -10 47 12 13 44 7 50 -9z"/> <path d="M1811 1014 c-11 -15 -21 -21 -21 -14 0 7 -2 11 -5 9 -2 -3 -1 -20 5 -37 5 -20 5 -30 -1 -27 -21 13 -6 -12 19 -31 45 -35 66 -37 95 -10 37 35 44 71 20 104 -29 39 -84 42 -112 6z m97 -43 c7 -47 -49 -69 -82 -32 -20 22 -8 67 21 74 25 6 57 -16 61 -42z"/> <path d="M1840 453 c-52 -19 -66 -75 -27 -116 33 -38 68 -41 100 -11 40 37 31 100 -20 123 -26 12 -30 12 -53 4z m58 -35 c19 -19 14 -55 -9 -72 -43 -30 -93 20 -63 63 17 23 53 28 72 9z"/> <path d="M2410 1401 c0 -6 4 -13 10 -16 6 -3 7 1 4 9 -7 18 -14 21 -14 7z"/> </g> </svg> 